# xmcd
# 
# Track frame offsets:
#     150
#     13801
#     34943
#     54460
#     70561
#     84614
#     106302
#     119258
#     136195
#     149029
#     164675
#     181269
#     200566
# 
# Disc length: 2817
# 
# Revision: 3
# Processed by: cddbd v1.5.2PL0 Copyright (c) Steve Scherf et al.
# Submitted via: fre:ac v1.0.31
# 
DISCID=bb0aff0d
DTITLE=Gretchen Wilson - Right On Time
DYEAR=2013
DGENRE=Country
TTITLE0=Get Outta My Yard
TTITLE1=Still Rollin'
TTITLE2=Grandma
TTITLE3=Crazy
TTITLE4=The Well Run Dry
TTITLE5=The Gypsy In Me
TTITLE6=Dust and Bone
TTITLE7=Right On Time
TTITLE8=My Truck [featuring Josh Malter]
TTITLE9=One Good Friend
TTITLE10=I've Been In Love
TTITLE11=Hey Love
TTITLE12=Birds Of A Feather
EXTD=
EXTT0=
EXTT1=
EXTT2=
EXTT3=
EXTT4=
EXTT5=
EXTT6=
EXTT7=
EXTT8=
EXTT9=
EXTT10=
EXTT11=
EXTT12=
PLAYORDER=
